<svg xmlns="http://www.w3.org/2000/svg" viewBox="0 0 48 48" fill="none">
  <defs>
    <linearGradient id="g" x1="4" y1="6" x2="44" y2="42" gradientUnits="userSpaceOnUse">
      <stop offset="0" stop-color="#22c55e"/>
      <stop offset="1" stop-color="#0d9488"/>
    </linearGradient>
  </defs>
  <rect x="2" y="2" width="44" height="44" rx="12" fill="url(#g)"/>
  <path d="M24 11c7.5 0 13 5.7 13 13.2 0 .6-.5 1-1 .9-7-1-12.2-6.6-13-13.6 0-.5.4-.9 1-.5z" fill="#ffffff" fill-opacity="0.95"/>
  <path d="M24 37c-7.5 0-13-5.7-13-13.2 0-.6.5-1 1-.9 7 1 12.2 6.6 13 13.6 0 .5-.4.9-1 .5z" fill="#ffffff" fill-opacity="0.95"/>
  <path d="M24 11v26" stroke="#0f3d2e" stroke-width="1.4" stroke-linecap="round" opacity="0.35"/>
</svg>
